%TF.GenerationSoftware,KiCad,Pcbnew,8.0.8*%
%TF.CreationDate,2025-02-19T09:22:26+05:45*%
%TF.ProjectId,MacroPad PCB,4d616372-6f50-4616-9420-5043422e6b69,rev?*%
%TF.SameCoordinates,Original*%
%TF.FileFunction,Copper,L1,Top*%
%TF.FilePolarity,Positive*%
%FSLAX46Y46*%
G04 Gerber Fmt 4.6, Leading zero omitted, Abs format (unit mm)*
G04 Created by KiCad (PCBNEW 8.0.8) date 2025-02-19 09:22:26*
%MOMM*%
%LPD*%
G01*
G04 APERTURE LIST*
%TA.AperFunction,ComponentPad*%
%ADD10C,3.000000*%
%TD*%
%TA.AperFunction,ComponentPad*%
%ADD11C,3.600000*%
%TD*%
%TA.AperFunction,ComponentPad*%
%ADD12O,1.000000X1.600000*%
%TD*%
%TA.AperFunction,ComponentPad*%
%ADD13O,1.000000X2.100000*%
%TD*%
%TA.AperFunction,ViaPad*%
%ADD14C,0.600000*%
%TD*%
%TA.AperFunction,Conductor*%
%ADD15C,0.200000*%
%TD*%
%TA.AperFunction,Conductor*%
%ADD16C,0.400000*%
%TD*%
G04 APERTURE END LIST*
D10*
%TO.P,,1*%
%TO.N,N/C*%
X73455118Y-41380000D03*
%TD*%
%TO.P,,1*%
%TO.N,N/C*%
X73455118Y-79480000D03*
%TD*%
%TO.P,,1*%
%TO.N,N/C*%
X35355118Y-41380000D03*
%TD*%
%TO.P,,1*%
%TO.N,N/C*%
X35355118Y-79480000D03*
%TD*%
D11*
%TO.P,S12,1,1*%
%TO.N,Column 4*%
X86790118Y-53445000D03*
%TO.P,S12,2,2*%
%TO.N,Net-(D12-A)*%
X80440118Y-55985000D03*
%TD*%
D12*
%TO.P,J1,S1,SHIELD*%
%TO.N,GND*%
X50085118Y-23730000D03*
D13*
X50085118Y-27910000D03*
D12*
X58725118Y-23730000D03*
D13*
X58725118Y-27910000D03*
%TD*%
D11*
%TO.P,S6,1,1*%
%TO.N,Column 2*%
X48690118Y-72495000D03*
%TO.P,S6,2,2*%
%TO.N,Net-(D6-A)*%
X42340118Y-75035000D03*
%TD*%
%TO.P,S9,1,1*%
%TO.N,Column 1*%
X29640118Y-53445000D03*
%TO.P,S9,2,2*%
%TO.N,Net-(D9-A)*%
X23290118Y-55985000D03*
%TD*%
%TO.P,S7,1,1*%
%TO.N,Column 3*%
X67740118Y-72495000D03*
%TO.P,S7,2,2*%
%TO.N,Net-(D7-A)*%
X61390118Y-75035000D03*
%TD*%
%TO.P,S3,1,1*%
%TO.N,Column 3*%
X67740118Y-91545000D03*
%TO.P,S3,2,2*%
%TO.N,Net-(D3-A)*%
X61390118Y-94085000D03*
%TD*%
%TO.P,S16,1,1*%
%TO.N,Column 4*%
X86790118Y-34395000D03*
%TO.P,S16,2,2*%
%TO.N,Net-(D16-A)*%
X80440118Y-36935000D03*
%TD*%
%TO.P,S14,1,1*%
%TO.N,Column 2*%
X48690118Y-34395000D03*
%TO.P,S14,2,2*%
%TO.N,Net-(D14-A)*%
X42340118Y-36935000D03*
%TD*%
%TO.P,S15,1,1*%
%TO.N,Column 3*%
X67740118Y-34395000D03*
%TO.P,S15,2,2*%
%TO.N,Net-(D15-A)*%
X61390118Y-36935000D03*
%TD*%
%TO.P,S11,1,1*%
%TO.N,Column 3*%
X67740118Y-53445000D03*
%TO.P,S11,2,2*%
%TO.N,Net-(D11-A)*%
X61390118Y-55985000D03*
%TD*%
%TO.P,S13,1,1*%
%TO.N,Column 1*%
X29640118Y-34395000D03*
%TO.P,S13,2,2*%
%TO.N,Net-(D13-A)*%
X23290118Y-36935000D03*
%TD*%
%TO.P,S10,1,1*%
%TO.N,Column 2*%
X48685118Y-53445000D03*
%TO.P,S10,2,2*%
%TO.N,Net-(D10-A)*%
X42335118Y-55985000D03*
%TD*%
%TO.P,S8,1,1*%
%TO.N,Column 4*%
X86790118Y-72495000D03*
%TO.P,S8,2,2*%
%TO.N,Net-(D8-A)*%
X80440118Y-75035000D03*
%TD*%
%TO.P,S1,1,1*%
%TO.N,Column 1*%
X29640118Y-91545000D03*
%TO.P,S1,2,2*%
%TO.N,Net-(D1-A)*%
X23290118Y-94085000D03*
%TD*%
%TO.P,S4,1,1*%
%TO.N,Column 4*%
X86790118Y-91545000D03*
%TO.P,S4,2,2*%
%TO.N,Net-(D4-A)*%
X80440118Y-94085000D03*
%TD*%
%TO.P,S2,1,1*%
%TO.N,Column 2*%
X48690118Y-91545000D03*
%TO.P,S2,2,2*%
%TO.N,Net-(D2-A)*%
X42340118Y-94085000D03*
%TD*%
%TO.P,S5,1,1*%
%TO.N,Column 1*%
X29640118Y-72495000D03*
%TO.P,S5,2,2*%
%TO.N,Net-(D5-A)*%
X23290118Y-75035000D03*
%TD*%
D14*
%TO.N,Net-(D1-A)*%
X33055118Y-85755000D03*
X31655118Y-85755000D03*
%TO.N,Net-(D3-A)*%
X71155118Y-85755000D03*
X69830118Y-85755000D03*
%TO.N,Net-(D5-A)*%
X31605118Y-66705000D03*
X33305118Y-66705000D03*
%TO.N,Net-(D7-A)*%
X69605118Y-66705000D03*
X71280118Y-66705000D03*
%TO.N,Net-(D9-A)*%
X31815118Y-47655000D03*
X33380118Y-47655000D03*
%TO.N,Net-(D11-A)*%
X72030118Y-47655000D03*
X69605118Y-47655000D03*
%TO.N,Net-(D15-A)*%
X71505118Y-28605000D03*
X70055118Y-28605000D03*
%TO.N,GND*%
X59830118Y-63180000D03*
X59505118Y-72090000D03*
X51355118Y-40130000D03*
X57905118Y-59405000D03*
X48380118Y-61780000D03*
X54405118Y-39980000D03*
X55392017Y-68257735D03*
X56405118Y-43705000D03*
X52530118Y-48380000D03*
X51855118Y-31480000D03*
X55392017Y-71543371D03*
%TO.N,+3V3*%
X57455118Y-57735000D03*
X54055118Y-73410000D03*
X54055118Y-75740000D03*
X54405118Y-45380000D03*
X48380118Y-58805000D03*
X59905118Y-58105000D03*
%TO.N,+5V*%
X55355118Y-41030000D03*
X56305118Y-34930000D03*
%TO.N,VBUS*%
X56921543Y-30013575D03*
X56905118Y-32130000D03*
%TO.N,D+*%
X53639726Y-30614608D03*
X55725093Y-35499975D03*
X54855118Y-34380000D03*
%TO.N,BOOT0*%
X55955118Y-65405000D03*
X55755118Y-74780000D03*
%TO.N,Row 1*%
X38080118Y-67530000D03*
X69780118Y-82455000D03*
X51555118Y-60255000D03*
X71180118Y-82455000D03*
%TO.N,Row 2*%
X69705118Y-63380000D03*
X71180118Y-63380000D03*
%TO.N,Row 3*%
X53405118Y-49180000D03*
X57505118Y-64630000D03*
X42605118Y-58655000D03*
X55605118Y-64580000D03*
X72055118Y-44355000D03*
X55080118Y-49180000D03*
X56230118Y-61955000D03*
X71115118Y-61330000D03*
%TO.N,Row 4*%
X73005118Y-59955000D03*
X56758766Y-64030000D03*
%TO.N,Column 1*%
X53855118Y-57055000D03*
X51505118Y-55805000D03*
%TO.N,Column 2*%
X51505118Y-55004997D03*
X45805118Y-58462841D03*
X48530853Y-78180735D03*
X46173797Y-56397107D03*
X53729383Y-56080735D03*
X52555118Y-32778527D03*
X45455118Y-64005000D03*
X51555118Y-90030000D03*
%TO.N,Column 3*%
X52155118Y-63305000D03*
X58830118Y-83055000D03*
%TO.N,Column 4*%
X72355118Y-62530000D03*
X51655118Y-57380000D03*
%TD*%
D15*
%TO.N,Net-(D1-A)*%
X31655118Y-85755000D02*
X33055118Y-85755000D01*
%TO.N,Net-(D3-A)*%
X69830118Y-85755000D02*
X71155118Y-85755000D01*
%TO.N,Net-(D5-A)*%
X31605118Y-66705000D02*
X33305118Y-66705000D01*
%TO.N,Net-(D7-A)*%
X69605118Y-66705000D02*
X71280118Y-66705000D01*
%TO.N,Net-(D9-A)*%
X33380118Y-47655000D02*
X31815118Y-47655000D01*
%TO.N,Net-(D11-A)*%
X69605118Y-47655000D02*
X72030118Y-47655000D01*
%TO.N,Net-(D15-A)*%
X70055118Y-28605000D02*
X71505118Y-28605000D01*
D16*
%TO.N,GND*%
X54405118Y-39980000D02*
X52255118Y-39980000D01*
X52255118Y-39980000D02*
X51855118Y-39580000D01*
D15*
X55155118Y-75770000D02*
X55155118Y-74531471D01*
X59505118Y-72090000D02*
X57055118Y-72090000D01*
D16*
X55655118Y-44455000D02*
X56405118Y-43705000D01*
D15*
X56080118Y-63180000D02*
X59830118Y-63180000D01*
X55392017Y-68257735D02*
X55005118Y-67870836D01*
D16*
X50980118Y-40505000D02*
X50980118Y-42855000D01*
D15*
X55005118Y-64255000D02*
X56080118Y-63180000D01*
X55375118Y-71560270D02*
X55392017Y-71543371D01*
X48755118Y-62155000D02*
X48380118Y-61780000D01*
X56392017Y-72753101D02*
X56392017Y-75653101D01*
D16*
X51355118Y-40130000D02*
X50980118Y-40505000D01*
D15*
X55395118Y-76010000D02*
X55155118Y-75770000D01*
D16*
X50980118Y-42855000D02*
X52580118Y-44455000D01*
X50085118Y-27910000D02*
X50085118Y-23730000D01*
D15*
X55155118Y-62155000D02*
X48905118Y-62155000D01*
D16*
X54340168Y-44455000D02*
X52530118Y-46265050D01*
X58725118Y-27910000D02*
X58725118Y-23730000D01*
D15*
X48905118Y-62155000D02*
X48755118Y-62155000D01*
X56392017Y-75653101D02*
X56035118Y-76010000D01*
X57055118Y-72090000D02*
X56392017Y-72753101D01*
D16*
X51855118Y-39580000D02*
X51855118Y-31480000D01*
D15*
X57905118Y-59405000D02*
X55155118Y-62155000D01*
X55375118Y-74311471D02*
X55375118Y-71560270D01*
X55005118Y-67870836D02*
X55005118Y-64255000D01*
D16*
X52580118Y-44455000D02*
X54230118Y-44455000D01*
D15*
X55155118Y-74531471D02*
X55375118Y-74311471D01*
D16*
X55655118Y-44455000D02*
X54340168Y-44455000D01*
X54230118Y-44455000D02*
X55655118Y-44455000D01*
X52530118Y-46265050D02*
X52530118Y-48380000D01*
D15*
X56035118Y-76010000D02*
X55395118Y-76010000D01*
%TO.N,+3V3*%
X59905118Y-58105000D02*
X58105118Y-58105000D01*
X51130118Y-59580000D02*
X50355118Y-58805000D01*
X56881589Y-59580000D02*
X51130118Y-59580000D01*
X57905118Y-58305000D02*
X57905118Y-58556471D01*
X50355118Y-58805000D02*
X48380118Y-58805000D01*
X59755118Y-58105000D02*
X59385118Y-57735000D01*
X59905118Y-58105000D02*
X59755118Y-58105000D01*
D16*
X54405118Y-45380000D02*
X54380118Y-45405000D01*
X54380118Y-54660000D02*
X57455118Y-57735000D01*
D15*
X54055118Y-73410000D02*
X54055118Y-75740000D01*
X59385118Y-57735000D02*
X57455118Y-57735000D01*
D16*
X54380118Y-45405000D02*
X54380118Y-54660000D01*
D15*
X57905118Y-58556471D02*
X56881589Y-59580000D01*
X58105118Y-58105000D02*
X57905118Y-58305000D01*
D16*
%TO.N,+5V*%
X56305118Y-34930000D02*
X56425093Y-35049975D01*
X56425093Y-35049975D02*
X56425093Y-39960025D01*
X56425093Y-39960025D02*
X55355118Y-41030000D01*
%TO.N,VBUS*%
X56921543Y-30013575D02*
X56921543Y-32113575D01*
X56921543Y-32113575D02*
X56905118Y-32130000D01*
D15*
%TO.N,D+*%
X53639726Y-32364608D02*
X54855118Y-33580000D01*
X54855118Y-34380000D02*
X54855118Y-34630000D01*
X54855118Y-34630000D02*
X55725093Y-35499975D01*
X53639726Y-30614608D02*
X53639726Y-32364608D01*
X54855118Y-33580000D02*
X54855118Y-34380000D01*
%TO.N,BOOT0*%
X55955118Y-65405000D02*
X55955118Y-67972307D01*
X55992017Y-68009206D02*
X55992017Y-74543101D01*
X55992017Y-74543101D02*
X55755118Y-74780000D01*
X55955118Y-67972307D02*
X55992017Y-68009206D01*
%TO.N,Row 1*%
X38080118Y-67530000D02*
X38080118Y-65339314D01*
X51903647Y-56780000D02*
X52255118Y-57131471D01*
X46639432Y-56780000D02*
X51903647Y-56780000D01*
X47780118Y-59105000D02*
X48930118Y-60255000D01*
X69780118Y-82455000D02*
X71180118Y-82455000D01*
X51903647Y-57980000D02*
X48356589Y-57980000D01*
X48930118Y-60255000D02*
X51555118Y-60255000D01*
X48356589Y-57980000D02*
X47780118Y-58556471D01*
X52255118Y-57628529D02*
X51903647Y-57980000D01*
X52255118Y-57131471D02*
X52255118Y-57628529D01*
X38080118Y-65339314D02*
X46639432Y-56780000D01*
X47780118Y-58556471D02*
X47780118Y-59105000D01*
%TO.N,Row 2*%
X69705118Y-63380000D02*
X71180118Y-63380000D01*
%TO.N,Row 3*%
X55655118Y-64630000D02*
X57505118Y-64630000D01*
X43005118Y-58655000D02*
X45655118Y-56005000D01*
X55605118Y-64580000D02*
X55655118Y-64630000D01*
X42605118Y-58655000D02*
X43005118Y-58655000D01*
X48305118Y-49180000D02*
X53405118Y-49180000D01*
X45655118Y-53448402D02*
X47355118Y-51748402D01*
X55080118Y-49180000D02*
X59905118Y-44355000D01*
X47355118Y-50130000D02*
X48305118Y-49180000D01*
X45655118Y-56005000D02*
X45655118Y-53448402D01*
X56855118Y-61330000D02*
X56230118Y-61955000D01*
X71115118Y-61330000D02*
X56855118Y-61330000D01*
X59905118Y-44355000D02*
X72055118Y-44355000D01*
X47355118Y-51748402D02*
X47355118Y-50130000D01*
%TO.N,Row 4*%
X71753647Y-63980000D02*
X59781589Y-63980000D01*
X59381589Y-63580000D02*
X57208766Y-63580000D01*
X57208766Y-63580000D02*
X56758766Y-64030000D01*
X73005118Y-62728529D02*
X71753647Y-63980000D01*
X73005118Y-59955000D02*
X73005118Y-62728529D01*
X59781589Y-63980000D02*
X59381589Y-63580000D01*
%TO.N,Column 1*%
X51505118Y-55805000D02*
X52605118Y-55805000D01*
X52605118Y-55805000D02*
X53855118Y-57055000D01*
%TO.N,Column 2*%
X50630118Y-54430000D02*
X53443011Y-54430000D01*
X43901716Y-48555000D02*
X40235118Y-52221598D01*
X49805118Y-55255000D02*
X50630118Y-54430000D01*
X53730118Y-56080000D02*
X53729383Y-56080735D01*
X46173797Y-56397107D02*
X46390904Y-56180000D01*
X43901716Y-46734873D02*
X43901716Y-48555000D01*
X51606589Y-30880000D02*
X51255118Y-31231471D01*
X51555118Y-81205000D02*
X51555118Y-90030000D01*
X52103647Y-30880000D02*
X51606589Y-30880000D01*
X52555118Y-31331471D02*
X52103647Y-30880000D01*
X45455118Y-64005000D02*
X45455118Y-58812841D01*
X50956589Y-55505000D02*
X51256589Y-55205000D01*
X48530853Y-78180735D02*
X51555118Y-81205000D01*
X42356589Y-59255000D02*
X42970804Y-59255000D01*
X51255118Y-31231471D02*
X51255118Y-39381471D01*
X45455118Y-58812841D02*
X45805118Y-58462841D01*
X51256589Y-55205000D02*
X51305115Y-55205000D01*
X53730118Y-54717107D02*
X53730118Y-56080000D01*
X51255118Y-39381471D02*
X43901716Y-46734873D01*
X40235118Y-57133529D02*
X42356589Y-59255000D01*
X48530118Y-55505000D02*
X50956589Y-55505000D01*
X47855118Y-56180000D02*
X48530118Y-55505000D01*
X42970804Y-59255000D02*
X46970804Y-55255000D01*
X46390904Y-56180000D02*
X47855118Y-56180000D01*
X53443011Y-54430000D02*
X53730118Y-54717107D01*
X51305115Y-55205000D02*
X51505118Y-55004997D01*
X40235118Y-52221598D02*
X40235118Y-57133529D01*
X46970804Y-55255000D02*
X49805118Y-55255000D01*
X52555118Y-32778527D02*
X52555118Y-31331471D01*
%TO.N,Column 3*%
X59185118Y-78130000D02*
X59835118Y-78780000D01*
X55255118Y-78130000D02*
X59185118Y-78130000D01*
X52155118Y-63305000D02*
X52155118Y-65280000D01*
X59835118Y-78780000D02*
X59835118Y-82050000D01*
X51230118Y-66205000D02*
X51230118Y-70180000D01*
X53455118Y-76330000D02*
X55255118Y-78130000D01*
X52155118Y-65280000D02*
X51230118Y-66205000D01*
X53455118Y-72405000D02*
X53455118Y-76330000D01*
X51230118Y-70180000D02*
X53455118Y-72405000D01*
X59835118Y-82050000D02*
X58830118Y-83055000D01*
%TO.N,Column 4*%
X46380118Y-57605000D02*
X46780118Y-57205000D01*
X51480118Y-57205000D02*
X51655118Y-57380000D01*
X72355118Y-62530000D02*
X72330118Y-62555000D01*
X47155118Y-62555000D02*
X46405118Y-61805000D01*
X46405118Y-57630000D02*
X46380118Y-57605000D01*
X46405118Y-61805000D02*
X46405118Y-57630000D01*
X46780118Y-57205000D02*
X51480118Y-57205000D01*
X72330118Y-62555000D02*
X47155118Y-62555000D01*
%TD*%
M02*
